# Blender 5.2.0 LTS
# www.blender.org
mtllib carregador.mtl
o View_-_Pilot
v 15.801862 61.020123 -73.772942
v 15.801862 114.034576 -73.187813
v 15.801862 114.127296 -78.966637
v 15.801862 7.458174 -67.039261
v 5.529935 61.020123 -73.772942
v 5.529935 114.127296 -78.966637
v 15.801864 17.287800 -15.942212
v 15.801864 70.702606 -21.945124
v 12.853789 17.287800 -15.942212
v 15.801864 114.464310 -26.093138
v 12.853789 70.702606 -21.945124
v 12.853789 70.755547 -17.647694
v 12.853789 113.217758 -21.722231
v 12.853789 114.464310 -26.093138
v -0.001548 113.217758 -21.722229
v 15.801864 128.747391 -26.495239
v -0.001549 114.464310 -26.093138
v -0.001549 128.747391 -26.495237
v -12.856906 114.464310 -26.093138
v -0.001549 130.316254 -27.878326
v -15.804979 128.747391 -26.495237
v -15.804979 114.464310 -26.093138
v -15.804979 130.316254 -27.878325
v -13.697854 130.304459 -29.262657
v -15.804979 130.142593 -46.958988
v -0.001549 130.304459 -29.262659
v 13.694726 130.304459 -29.262659
v -0.001549 107.370590 -28.516935
v 15.801864 130.316254 -27.878328
v 15.801864 130.142593 -46.958988
v 15.801862 129.899765 -73.635986
v 13.694726 130.192642 -46.958988
v 13.694726 135.237701 -47.128269
v 15.801864 137.964813 -47.179287
v 7.695262 137.985413 -47.179283
v 7.695261 137.741104 -73.856331
v 15.801862 137.720505 -73.856331
v 7.695261 129.920349 -73.635986
v 5.529935 114.056656 -73.187813
v -0.001550 129.920349 -73.635986
v 7.695261 135.243607 -71.626709
v 7.695261 130.198517 -71.457375
v -0.001550 130.198517 -71.457375
v -7.698379 130.198517 -71.457375
v -7.698379 129.920349 -73.635986
v -0.001550 107.266106 -70.711685
v 13.694724 107.258759 -70.711685
v 13.694726 107.370590 -28.516937
v -13.697854 107.370590 -28.516933
v -13.697861 107.258759 -70.711685
v -13.697861 135.237701 -71.626709
v -13.697854 130.192642 -46.958988
v -13.697854 135.237701 -47.128269
v -15.804979 137.964813 -47.179283
v -7.698377 137.985413 -47.179283
v -7.698377 135.243607 -47.128269
v -7.698379 135.243607 -71.626709
v -7.698379 137.741104 -73.856331
v -15.804981 137.720505 -73.856331
v -15.804981 129.899765 -73.635986
v -15.804981 114.034576 -73.187813
v -5.533054 114.056656 -73.187813
v -0.001550 114.056656 -73.187813
v -5.533054 61.679440 -68.148468
v -5.533054 114.127296 -78.966637
v -5.533054 61.020123 -73.772942
v -15.804981 114.127296 -78.966637
v -15.804981 61.020123 -73.772942
v -15.804981 7.458174 -67.039261
v -15.804979 17.287800 -15.942212
v -15.804979 70.702606 -21.945120
v -12.856906 17.287800 -15.942212
v -12.856906 70.702606 -21.945120
v -12.856906 113.217758 -21.722229
v -12.856906 70.755547 -17.647694
v -0.001548 17.379055 -11.649812
v -12.856906 17.379055 -11.649812
v -0.001548 70.755547 -17.647694
v -12.856905 -29.176010 -4.111887
v -12.856906 -29.822079 -8.317192
v -15.804977 -29.822079 -8.317192
v -12.856905 -80.598083 3.965033
v -15.804977 -80.598083 3.965033
v -12.856905 -79.369194 8.040800
v -12.856905 -111.304092 13.574417
v -12.856904 -109.551308 17.500835
v -15.804977 -111.304092 13.574417
v -15.804979 -98.301407 -45.109074
v -15.804979 -133.218048 -35.682697
v -15.804977 -107.724899 21.623962
v -19.665264 -109.551308 17.500835
v -19.665266 -133.218048 -35.682697
v -19.684271 -169.431351 -23.649439
v -5.533052 -163.045563 -25.666206
v -0.001549 -169.431351 -23.649439
v -19.684267 -145.765991 29.534088
v -0.001549 -163.045563 -25.666206
v 19.681154 -169.431351 -23.649439
v 5.529938 -163.045563 -25.666206
v -0.001548 -162.384766 -20.041702
v 5.529939 -162.384766 -20.041702
v -5.533052 -162.384766 -20.041702
v -0.001549 -132.558777 -30.059420
v 5.529938 -132.558777 -30.059420
v -5.533052 -132.558777 -30.059420
v -0.001549 -97.642090 -39.484573
v 5.529938 -97.642090 -39.484573
v -5.533053 -97.642090 -39.484573
v -0.001549 -42.715866 -52.373039
v 5.529936 8.117513 -61.414787
v -0.001549 8.117513 -61.414787
v 5.529936 -42.715866 -52.373039
v -5.533053 -42.715866 -52.373039
v -5.533054 8.117513 -61.414787
v -0.001550 61.679440 -68.148468
v -5.533054 7.458174 -67.039261
v -5.533054 -43.375160 -57.997540
v -5.533053 -98.301407 -45.109074
v -15.804979 -43.375160 -57.997540
v -5.533053 -133.218048 -35.682697
v 5.529935 61.679440 -68.148468
v 5.529935 7.458174 -67.039261
v 15.801864 -43.375160 -57.997540
v 5.529936 -43.375160 -57.997540
v 5.529936 -98.301407 -45.109074
v 15.801864 -98.301407 -45.109077
v 15.801864 -133.218048 -35.682697
v 15.801866 -80.598083 3.965033
v 15.801866 -29.822079 -8.317192
v 12.853789 -80.598083 3.965033
v 12.853789 -29.822079 -8.317192
v 12.853789 -29.176010 -4.111887
v 12.853789 17.379055 -11.649812
v 12.853789 -79.369194 8.040800
v -0.001547 -79.369194 8.040800
v -0.001548 -29.176010 -4.111887
v -0.001547 -109.551308 17.500835
v 12.853790 -109.551308 17.500835
v -0.001547 -107.724899 21.623962
v 15.801866 -107.724899 21.623962
v -15.825167 -143.938126 33.657173
v 15.822053 -143.938126 33.657173
v -0.001546 -143.938126 33.657173
v 19.681158 -145.765991 29.534088
v 19.662148 -109.551308 17.500835
v 15.801866 -111.304092 13.574417
v 19.662146 -133.218048 -35.682697
v 12.853789 -111.304092 13.574417
v 5.529938 -133.218048 -35.682697
v 13.694724 135.237701 -71.626709
v 7.695262 135.243607 -47.128269
v -0.000337 141.517548 -41.800083
v -0.000338 140.771408 -67.528465
v 3.584348 139.582245 -67.503593
v -3.585094 139.582245 -67.503593
v -0.000337 140.853790 -41.786385
v 3.584349 140.326920 -41.776432
v -3.585092 140.326920 -41.776432
v -3.316656 139.752960 -41.763973
v -6.208900 137.077362 -41.707962
v -6.208902 136.331192 -67.436363
v -5.744470 136.744736 -41.701710
v -7.168628 132.637161 -41.615810
v -7.168629 131.891022 -67.344223
v -6.632940 132.637161 -41.615810
v -6.208900 128.196960 -41.524979
v -3.585094 124.201256 -67.184891
v -6.208902 127.450836 -67.252121
v -5.744470 128.528107 -41.531155
v -3.585092 124.945946 -41.456459
v -0.000337 124.420532 -41.446526
v -0.000337 123.756790 -41.432835
v -3.316656 125.521378 -41.468964
v -5.637576 128.732681 -37.157841
v -3.254894 125.780418 -37.096832
v -0.000336 124.700157 -37.074425
v 3.254151 125.780418 -37.096832
v -0.000336 125.518440 -34.883392
v 2.950076 126.497124 -34.903320
v -2.950793 126.497124 -34.903320
v -5.110207 129.172714 -34.959316
v -4.268064 129.812912 -32.406044
v -2.463823 127.578842 -32.359982
v -1.595557 129.539185 -30.317068
v -0.000336 129.009369 -30.307135
v -0.000336 126.760567 -32.342552
v 2.464276 127.578842 -32.359982
v 4.267322 129.812912 -32.406044
v 1.596018 129.539185 -30.317068
v -0.000336 132.996262 -29.201654
v 2.763597 130.985886 -30.346972
v 3.191195 132.962402 -30.388079
v 4.927727 132.865280 -32.469559
v 5.110650 129.172714 -34.959316
v 5.900525 132.827011 -35.035252
v 4.267322 135.917633 -32.533020
v 5.110650 136.482788 -35.111217
v 2.464276 138.151703 -32.579082
v 2.763597 134.938950 -30.429132
v 1.596018 136.385651 -30.458990
v -0.000336 136.915451 -30.470213
v -0.000336 138.970001 -32.596481
v -2.950793 139.156906 -35.165997
v -0.000336 140.137070 -35.185883
v -1.595557 136.385651 -30.458990
v 2.950076 139.156906 -35.165997
v -2.463823 138.151703 -32.579082
v -5.110207 136.482788 -35.111214
v -2.764340 134.938950 -30.429132
v -4.268064 135.917633 -32.533020
v -5.900074 132.827011 -35.035252
v -3.191928 132.962402 -30.388079
v -4.928462 132.865280 -32.469559
v -2.764340 130.985886 -30.346972
v -6.509408 132.763733 -37.242512
v -5.637576 136.794769 -37.325897
v -3.254894 139.745590 -37.386902
v -0.000336 140.825836 -37.409336
v 3.254151 139.745590 -37.386902
v 3.317099 139.752960 -41.763973
v 5.636832 136.794769 -37.325897
v 5.744921 136.744736 -41.701710
v 6.508665 132.763733 -37.242512
v 5.744921 128.528107 -41.531158
v 5.636832 128.732681 -37.157841
v 6.633383 132.637161 -41.615814
v 7.169071 132.637161 -41.615814
v 6.208157 128.196960 -41.524979
v 7.169069 131.891022 -67.344223
v 6.208156 127.450836 -67.252121
v 3.584348 124.201256 -67.184891
v 3.584349 124.945946 -41.456459
v 3.317099 125.521378 -41.468964
v -0.000338 123.012093 -67.161240
v 5.671283 127.786362 -68.962593
v 3.274335 124.817894 -68.901634
v -0.000338 123.730309 -68.877968
v 3.274335 124.797295 -69.581337
v -0.000338 123.711174 -69.558929
v -3.273896 124.797295 -69.581337
v -3.273896 124.817894 -68.901634
v -0.000338 122.942924 -69.542747
v -3.585094 124.132080 -69.567635
v 3.584348 124.132080 -69.567635
v 3.584348 124.104126 -70.547386
v -0.000338 122.913490 -70.522484
v -3.585094 124.104126 -70.547386
v -0.000338 123.268173 -70.966911
v -3.436614 124.408760 -70.990562
v -6.208902 127.353661 -70.614601
v -6.208902 127.383102 -69.634865
v -7.168629 131.823318 -69.726982
v -6.548605 131.823318 -69.726982
v -5.670834 127.767227 -69.643562
v -7.168629 131.793869 -70.706718
v -5.952341 127.524406 -71.055298
v -6.872856 131.782104 -71.143661
v -6.208902 136.234070 -70.798828
v -5.952341 136.038315 -71.230827
v -6.208902 136.262024 -69.819115
v -3.585094 139.485092 -70.866074
v -3.436614 139.155441 -71.295540
v -0.000338 140.296021 -71.319221
v -3.585094 139.513062 -69.886360
v -0.000338 140.674255 -70.890976
v -0.000338 140.702209 -69.911263
v 3.584348 139.485092 -70.866074
v 3.437064 139.155441 -71.295540
v 6.208156 136.234070 -70.798828
v 6.208156 136.262024 -69.819115
v 3.584348 139.513062 -69.886360
v 5.671283 135.877914 -69.811638
v -0.000338 139.934021 -69.895042
v 3.274335 138.847839 -69.872643
v -0.000338 139.953110 -69.215340
v 3.274335 138.866989 -69.191658
v 5.671283 135.898514 -69.130684
v 6.208156 136.331192 -67.436363
v 6.549053 131.842438 -69.047272
v 6.549053 131.823318 -69.726982
v 5.671283 127.767227 -69.643562
v 6.208156 127.383102 -69.634865
v 7.169069 131.823318 -69.726982
v 7.169069 131.793869 -70.706718
v 6.208156 127.353661 -70.614601
v 5.952781 127.524406 -71.055298
v 3.437064 124.408760 -70.990562
v 6.873313 131.782104 -71.143661
v 5.952781 136.038315 -71.230827
v 6.208157 137.077362 -41.707962
v -3.273896 138.866989 -69.191658
v -3.273896 138.847839 -69.872643
v -5.670834 135.877914 -69.811638
v -6.548605 131.842438 -69.047272
v -5.670834 135.898514 -69.130684
v -5.670834 127.786362 -68.962593
v -6.760703 128.000977 -41.800083
v -6.760704 127.254822 -67.528465
v -3.176018 126.065666 -67.503593
v -10.345469 126.065666 -67.503593
v -6.760703 127.337234 -41.786385
v -3.176018 126.810356 -41.776432
v -10.345459 126.810356 -41.776432
v -10.077023 126.236397 -41.763969
v -12.969271 123.560799 -41.707958
v -12.969272 122.814629 -67.436363
v -12.504837 123.228180 -41.701706
v -13.928999 119.120590 -41.615807
v -13.929000 118.374435 -67.344223
v -13.393307 119.120590 -41.615807
v -12.969271 114.680389 -41.524975
v -10.345469 110.684685 -67.184891
v -12.969272 113.934265 -67.252121
v -12.504837 115.011536 -41.531151
v -10.345459 111.429367 -41.456459
v -6.760703 110.903961 -41.446526
v -6.760703 110.240219 -41.432835
v -10.077023 112.004814 -41.468964
v -12.397946 115.216118 -37.157833
v -10.015262 112.263855 -37.096832
v -6.760703 111.183586 -37.074421
v -3.506224 112.263855 -37.096832
v -6.760703 112.001862 -34.883392
v -3.810299 112.980560 -34.903316
v -9.711168 112.980560 -34.903316
v -11.870573 115.656158 -34.959312
v -11.028436 116.296349 -32.406036
v -9.224199 114.062279 -32.359978
v -8.355933 116.022614 -30.317068
v -6.760702 115.492790 -30.307135
v -6.760703 113.243988 -32.342548
v -4.296100 114.062279 -32.359978
v -2.493045 116.296349 -32.406040
v -5.164349 116.022614 -30.317068
v -6.760702 119.479691 -29.201654
v -3.996778 117.469322 -30.346972
v -3.569172 119.445839 -30.388079
v -1.832639 119.348709 -32.469555
v -1.649717 115.656158 -34.959312
v -0.859850 119.310432 -35.035248
v -2.493045 122.401062 -32.533016
v -1.649717 122.966209 -35.111210
v -4.296100 124.635147 -32.579079
v -3.996778 121.422379 -30.429132
v -5.164349 122.869080 -30.458990
v -6.760702 123.398888 -30.470211
v -6.760703 125.453423 -32.596478
v -9.711168 125.640335 -35.165993
v -6.760703 126.620506 -35.185883
v -8.355933 122.869080 -30.458988
v -3.810299 125.640335 -35.165993
v -9.224199 124.635147 -32.579079
v -11.870573 122.966209 -35.111210
v -9.524707 121.422379 -30.429132
v -11.028436 122.401062 -32.533016
v -12.660449 119.310432 -35.035248
v -9.952295 119.445839 -30.388079
v -11.688832 119.348709 -32.469555
v -9.524707 117.469322 -30.346972
v -13.269779 119.247177 -37.242508
v -12.397946 123.278206 -37.325893
v -10.015262 126.229027 -37.386898
v -6.760703 127.309273 -37.409336
v -3.506224 126.229027 -37.386898
v -3.443268 126.236397 -41.763969
v -1.123534 123.278206 -37.325893
v -1.015445 123.228180 -41.701706
v -0.251702 119.247177 -37.242508
v -1.015445 115.011536 -41.531155
v -1.123534 115.216118 -37.157837
v -0.126984 119.120590 -41.615807
v 0.408704 119.120590 -41.615807
v -0.552210 114.680389 -41.524975
v 0.408703 118.374435 -67.344223
v -0.552211 113.934265 -67.252121
v -3.176018 110.684685 -67.184891
v -3.176018 111.429367 -41.456459
v -3.443268 112.004814 -41.468964
v -6.760704 109.495522 -67.161240
v -1.089093 114.269798 -68.962593
v -3.486031 111.301331 -68.901634
v -6.760704 110.213753 -68.877968
v -3.486031 111.280731 -69.581337
v -6.760704 110.194603 -69.558929
v -10.034271 111.280731 -69.581337
v -10.034271 111.301331 -68.901634
v -6.760704 109.426361 -69.542747
v -10.345469 110.615517 -69.567635
v -3.176018 110.615517 -69.567635
v -3.176018 110.587555 -70.547386
v -6.760704 109.396919 -70.522484
v -10.345470 110.587555 -70.547386
v -6.760704 109.751610 -70.966911
v -10.196981 110.892189 -70.990562
v -12.969273 113.837090 -70.614601
v -12.969272 113.866547 -69.634865
v -13.929000 118.306747 -69.726982
v -13.308979 118.306747 -69.726982
v -12.431209 114.250664 -69.643562
v -13.929001 118.277298 -70.706718
v -12.712713 114.007828 -71.055298
v -13.633232 118.265541 -71.143661
v -12.969273 122.717499 -70.798828
v -12.712713 122.521751 -71.230827
v -12.969273 122.745461 -69.819115
v -10.345470 125.968529 -70.866074
v -10.196981 125.638870 -71.295540
v -6.760704 126.779449 -71.319221
v -10.345470 125.996490 -69.886360
v -6.760704 127.157684 -70.890976
v -6.760704 127.185646 -69.911263
v -3.176018 125.968529 -70.866074
v -3.323303 125.638870 -71.295540
v -0.552211 122.717499 -70.798828
v -0.552211 122.745461 -69.819115
v -3.176018 125.996490 -69.886360
v -1.089093 122.361351 -69.811638
v -6.760704 126.417442 -69.895042
v -3.486031 125.331276 -69.872643
v -6.760704 126.436531 -69.215340
v -3.486031 125.350410 -69.191658
v -1.089093 122.381943 -69.130684
v -0.552211 122.814629 -67.436363
v -0.211322 118.325874 -69.047272
v -0.211322 118.306747 -69.726982
v -1.089093 114.250664 -69.643562
v -0.552211 113.866547 -69.634865
v 0.408702 118.306747 -69.726982
v 0.408702 118.277298 -70.706718
v -0.552211 113.837090 -70.614601
v -0.807586 114.007828 -71.055298
v -3.323303 110.892189 -70.990562
v 0.112947 118.265541 -71.143661
v -0.807586 122.521751 -71.230827
v -0.552210 123.560799 -41.707958
v -10.034271 125.350410 -69.191658
v -10.034272 125.331276 -69.872643
v -12.431210 122.361351 -69.811638
v -13.308979 118.325874 -69.047272
v -12.431209 122.381943 -69.130684
v -12.431209 114.269798 -68.962593
v 6.789916 128.000977 -41.800083
v 6.789906 127.254822 -67.528465
v 10.374600 126.065666 -67.503593
v 3.205149 126.065666 -67.503593
v 6.789916 127.337234 -41.786385
v 10.374601 126.810356 -41.776432
v 3.205151 126.810356 -41.776432
v 3.473596 126.236397 -41.763969
v 0.581352 123.560799 -41.707958
v 0.581341 122.814629 -67.436363
v 1.045782 123.228180 -41.701706
v -0.378376 119.120590 -41.615807
v -0.378386 118.374435 -67.344223
v 0.157312 119.120590 -41.615807
v 0.581352 114.680389 -41.524975
v 3.205149 110.684685 -67.184891
v 0.581341 113.934265 -67.252121
v 1.045782 115.011536 -41.531155
v 3.205151 111.429367 -41.456459
v 6.789916 110.903961 -41.446526
v 6.789916 110.240219 -41.432835
v 3.473596 112.004814 -41.468964
v 1.152667 115.216118 -37.157837
v 3.535357 112.263855 -37.096832
v 6.789916 111.183586 -37.074425
v 10.044394 112.263855 -37.096832
v 6.789916 112.001862 -34.883392
v 9.740319 112.980560 -34.903316
v 3.839450 112.980560 -34.903316
v 1.680045 115.656158 -34.959312
v 2.522179 116.296349 -32.406040
v 4.326419 114.062279 -32.359978
v 5.194686 116.022614 -30.317068
v 6.789916 115.492790 -30.307135
v 6.789916 113.243988 -32.342548
v 9.254518 114.062279 -32.359978
v 11.057573 116.296349 -32.406040
v 8.386261 116.022614 -30.317068
v 6.789916 119.479691 -29.201654
v 9.553840 117.469322 -30.346972
v 9.981446 119.445839 -30.388081
v 11.717978 119.348709 -32.469555
v 11.900893 115.656158 -34.959312
v 12.690768 119.310432 -35.035248
v 11.057573 122.401062 -32.533016
v 11.900893 122.966209 -35.111214
v 9.254518 124.635147 -32.579079
v 9.553840 121.422379 -30.429132
v 8.386261 122.869080 -30.458990
v 6.789916 123.398888 -30.470213
v 6.789916 125.453423 -32.596478
v 3.839450 125.640335 -35.165993
v 6.789916 126.620506 -35.185883
v 5.194686 122.869080 -30.458990
v 9.740319 125.640335 -35.165993
v 4.326419 124.635147 -32.579079
v 1.680045 122.966209 -35.111214
v 4.025912 121.422379 -30.429132
v 2.522179 122.401062 -32.533016
v 0.890169 119.310432 -35.035248
v 3.598323 119.445839 -30.388079
v 1.861790 119.348709 -32.469555
v 4.025912 117.469322 -30.346972
v 0.280835 119.247177 -37.242508
v 1.152667 123.278206 -37.325893
v 3.535357 126.229027 -37.386898
v 6.789916 127.309273 -37.409336
v 10.044394 126.229027 -37.386898
v 10.107351 126.236397 -41.763973
v 12.427083 123.278206 -37.325893
v 12.535173 123.228180 -41.701706
v 13.298917 119.247177 -37.242508
v 12.535173 115.011536 -41.531155
v 12.427083 115.216118 -37.157837
v 13.423635 119.120590 -41.615810
v 13.959323 119.120590 -41.615810
v 12.998409 114.680389 -41.524975
v 13.959321 118.374435 -67.344223
v 12.998408 113.934265 -67.252121
v 10.374600 110.684685 -67.184891
v 10.374601 111.429367 -41.456459
v 10.107351 112.004814 -41.468964
v 6.789906 109.495522 -67.161240
v 12.461525 114.269798 -68.962593
v 10.064588 111.301331 -68.901634
v 6.789906 110.213753 -68.877968
v 10.064588 111.280731 -69.581337
v 6.789906 110.194603 -69.558929
v 3.516348 111.280731 -69.581337
v 3.516348 111.301331 -68.901634
v 6.789906 109.426361 -69.542747
v 3.205149 110.615517 -69.567635
v 10.374600 110.615517 -69.567635
v 10.374599 110.587555 -70.547386
v 6.789906 109.396919 -70.522484
v 3.205149 110.587555 -70.547386
v 6.789906 109.751610 -70.966911
v 3.353638 110.892189 -70.990562
v 0.581341 113.837090 -70.614601
v 0.581341 113.866547 -69.634865
v -0.378386 118.306747 -69.726982
v 0.241638 118.306747 -69.726982
v 1.119410 114.250664 -69.643562
v -0.378386 118.277298 -70.706718
v 0.837902 114.007828 -71.055298
v -0.082613 118.265541 -71.143661
v 0.581341 122.717499 -70.798828
v 0.837902 122.521751 -71.230827
v 0.581341 122.745461 -69.819115
v 3.205149 125.968529 -70.866074
v 3.353638 125.638870 -71.295540
v 6.789906 126.779449 -71.319221
v 3.205149 125.996490 -69.886360
v 6.789906 127.157684 -70.890976
v 6.789906 127.185646 -69.911263
v 10.374599 125.968529 -70.866074
v 10.227314 125.638870 -71.295540
v 12.998407 122.717499 -70.798828
v 12.998407 122.745461 -69.819115
v 10.374599 125.996490 -69.886360
v 12.461525 122.361351 -69.811638
v 6.789906 126.417442 -69.895042
v 10.064587 125.331276 -69.872643
v 6.789906 126.436531 -69.215340
v 10.064588 125.350410 -69.191658
v 12.461525 122.381943 -69.130684
v 12.998408 122.814629 -67.436363
v 13.339296 118.325874 -69.047272
v 13.339296 118.306747 -69.726982
v 12.461525 114.250664 -69.643562
v 12.998408 113.866547 -69.634865
v 13.959321 118.306747 -69.726982
v 13.959320 118.277298 -70.706718
v 12.998407 113.837090 -70.614601
v 12.743032 114.007828 -71.055298
v 10.227314 110.892189 -70.990562
v 13.663556 118.265541 -71.143661
v 12.743032 122.521751 -71.230827
v 12.998409 123.560799 -41.707958
v 3.516348 125.350410 -69.191658
v 3.516348 125.331276 -69.872643
v 1.119410 122.361351 -69.811638
v 0.241638 118.325874 -69.047272
v 1.119410 122.381943 -69.130684
v 1.119410 114.269798 -68.962593
vn 1.0000 -0.0000 -0.0000
vn -0.0000 -0.1110 -0.9938
vn -0.0000 -0.0973 -0.9953
vn -0.0000 -0.1495 -0.9888
vn -0.0000 0.1039 0.9946
vn -0.0000 0.1345 0.9909
vn -0.0000 0.1344 0.9909
vn -0.0000 0.0782 0.9969
vn -0.0000 0.0523 0.9986
vn -0.0000 0.9617 0.2743
vn -0.0000 0.0281 0.9996
vn -0.0000 0.6613 0.7501
vn -1.0000 -0.0000 -0.0000
vn -0.0000 1.0000 -0.0085
vn 0.0010 1.0000 -0.0071
vn -0.0003 1.0000 -0.0089
vn -0.0238 0.9997 -0.0063
vn -0.0237 0.9997 -0.0091
vn 0.0003 1.0000 -0.0089
vn -0.0010 1.0000 -0.0071
vn -0.0000 -0.0325 -0.9995
vn 0.0237 0.9997 -0.0091
vn 0.0238 0.9997 -0.0063
vn 0.0006 0.0282 0.9996
vn -0.0052 0.0227 0.9997
vn -0.0076 0.0245 0.9997
vn 0.0007 0.0335 0.9994
vn -0.0000 0.0186 0.9998
vn 0.0025 1.0000 -0.0092
vn -0.0000 -0.0282 -0.9996
vn -0.0001 -0.0282 -0.9996
vn -0.0000 -0.0645 -0.9979
vn -0.0000 -0.0802 -0.9968
vn -0.0000 0.9919 -0.1267
vn 0.0004 0.0327 0.9995
vn -0.0000 0.0325 0.9995
vn 0.0001 0.0326 0.9995
vn -0.0004 0.0327 0.9995
vn -0.0001 0.0326 0.9995
vn -0.0000 0.9919 -0.1266
vn -0.0000 1.0000 -0.0026
vn 0.0003 1.0000 -0.0026
vn -0.0003 1.0000 -0.0026
vn -0.0002 0.0334 0.9994
vn -0.0002 0.0327 0.9995
vn -0.0006 0.0282 0.9996
vn -0.0007 0.0335 0.9994
vn 0.0076 0.0245 0.9997
vn 0.0052 0.0227 0.9997
vn 0.0010 -1.0000 -0.0000
vn -0.0025 1.0000 -0.0092
vn 0.0001 -0.0282 -0.9996
vn -0.0000 -0.1103 -0.9939
vn -0.0000 0.9999 0.0161
vn -0.0022 0.9999 0.0161
vn -0.0022 0.9999 0.0122
vn -0.0000 0.9999 0.0122
vn -0.0000 0.1342 0.9910
vn -0.0000 0.1045 0.9945
vn -0.0000 0.0955 0.9954
vn -0.0000 0.1993 0.9799
vn -0.0000 0.2595 0.9657
vn -0.0000 0.2987 0.9544
vn -0.0007 0.9140 -0.4056
vn -0.0000 0.9132 -0.4076
vn -0.0003 0.9137 -0.4065
vn 0.0001 0.9139 -0.4059
vn 0.0004 0.9136 -0.4065
vn -0.0000 0.9137 -0.4065
vn 0.0023 0.9136 -0.4066
vn -0.0000 -0.2931 -0.9561
vn 0.0048 -0.3134 -0.9496
vn -0.0000 -0.3153 -0.9490
vn -1.0000 0.0005 -0.0002
vn -0.0000 -0.2876 -0.9577
vn 0.0079 -0.3170 -0.9484
vn -0.0000 -0.3012 -0.9536
vn -0.0000 -0.9136 0.4065
vn -0.0002 -0.9137 0.4064
vn -0.0079 -0.3170 -0.9484
vn -0.0048 -0.3134 -0.9496
vn -0.0000 0.9932 -0.1167
vn -0.0000 -0.3184 -0.9480
vn -0.0000 -0.2411 -0.9705
vn -0.0000 -0.2410 -0.9705
vn -0.0000 -0.2029 -0.9792
vn -0.0000 -0.2030 -0.9792
vn -0.0000 0.2597 0.9657
vn -0.0000 0.2991 0.9542
vn 0.0008 0.9141 -0.4055
vn -0.0000 0.9143 -0.4050
vn -0.0001 0.9139 -0.4059
vn -0.0000 0.3153 0.9490
vn 0.0001 -0.9138 0.4062
vn 0.0004 -0.9136 0.4065
vn -0.0002 -0.9136 0.4066
vn -0.0000 -0.9142 0.4053
vn -0.0000 -0.9142 0.4052
vn 0.7583 0.2059 0.6186
vn 1.0000 0.0005 -0.0002
vn -0.0013 0.9137 -0.4064
vn -0.0011 0.9137 -0.4064
vn -0.0002 0.9136 -0.4066
vn -0.7583 0.2059 0.6186
vn 0.0002 0.0327 0.9995
vn -0.0000 0.0336 0.9994
vn -0.0010 -1.0000 -0.0000
vn 0.0022 0.9999 0.0122
vn 0.0022 0.9999 0.0161
vn -0.5818 0.8130 -0.0236
vn -0.5818 0.8130 -0.0235
vn -0.0000 0.9996 -0.0290
vn 0.5818 0.8130 -0.0236
vn 0.5818 0.8130 -0.0235
vn -0.0000 0.0211 0.9998
vn -0.0004 0.0213 0.9998
vn -0.0007 0.0214 0.9998
vn 0.0004 0.0213 0.9998
vn 0.0012 0.0203 0.9998
vn 0.0010 0.0203 0.9998
vn -0.9064 0.4222 -0.0122
vn -0.9065 0.4221 -0.0123
vn -1.0000 -0.0001 -0.0000
vn -0.0000 0.0205 0.9998
vn -0.9065 -0.4221 0.0123
vn -0.9064 -0.4221 0.0122
vn -0.0011 0.0202 0.9998
vn -0.0012 0.0201 0.9998
vn -0.5817 -0.8131 0.0235
vn -0.5818 -0.8130 0.0236
vn 0.0003 0.0212 0.9998
vn 0.0004 0.0212 0.9998
vn -0.0000 0.0207 0.9998
vn -0.0000 -0.9996 0.0289
vn -0.5814 -0.8117 0.0563
vn -0.5766 -0.8029 0.1515
vn -0.9000 -0.4167 0.1278
vn -0.9059 -0.4214 0.0418
vn -0.0000 -0.9980 0.0638
vn -0.0000 -0.9863 0.1650
vn 0.5811 -0.8119 0.0564
vn 0.5766 -0.8029 0.1516
vn 0.5427 -0.7512 0.3757
vn -0.0000 -0.9169 0.3992
vn -0.5428 -0.7511 0.3759
vn -0.8564 -0.3920 0.3360
vn -0.4800 -0.6590 0.5790
vn -0.7726 -0.3492 0.5302
vn -0.0000 -0.7951 0.6065
vn -0.2860 -0.3822 0.8787
vn -0.4835 -0.2078 0.8503
vn -0.0000 -0.4499 0.8931
vn 0.4800 -0.6591 0.5789
vn 0.2859 -0.3822 0.8787
vn 0.8564 -0.3921 0.3360
vn 0.7726 -0.3491 0.5303
vn 0.4836 -0.2077 0.8503
vn -0.0000 0.0206 0.9998
vn 0.5529 0.0174 0.8331
vn 0.8640 0.0104 0.5033
vn 0.9493 0.0065 0.3143
vn 0.8565 0.4058 0.3189
vn 0.7750 0.3718 0.5110
vn 0.4872 0.2443 0.8384
vn 0.5429 0.7664 0.3433
vn 0.4831 0.6867 0.5432
vn 0.2902 0.4235 0.8581
vn -0.0001 0.4941 0.8694
vn -0.0000 0.8257 0.5641
vn -0.5430 0.7663 0.3434
vn -0.4831 0.6866 0.5433
vn -0.0000 0.9330 0.3598
vn -0.2902 0.4236 0.8581
vn -0.8565 0.4057 0.3191
vn -0.7750 0.3719 0.5110
vn -0.4871 0.2445 0.8384
vn -0.9493 0.0065 0.3143
vn -0.8641 0.0104 0.5033
vn -0.5529 0.0174 0.8331
vn -0.9007 0.4220 0.1035
vn -0.9939 0.0023 0.1107
vn -0.9061 0.4227 0.0174
vn -0.5775 0.8096 0.1052
vn -0.5816 0.8134 0.0096
vn -0.9996 0.0006 0.0282
vn -0.0000 0.9942 0.1080
vn -0.0000 1.0000 0.0064
vn 0.5774 0.8097 0.1053
vn 0.5816 0.8134 0.0097
vn 0.9007 0.4220 0.1035
vn 0.9061 0.4227 0.0176
vn 0.9939 0.0021 0.1106
vn 0.9996 0.0006 0.0285
vn 0.9059 -0.4214 0.0421
vn 0.9000 -0.4168 0.1278
vn -0.0012 0.0203 0.9998
vn -0.0010 0.0204 0.9998
vn 0.0009 0.0203 0.9998
vn 0.0011 0.0202 0.9998
vn 0.9064 -0.4222 0.0122
vn 0.9064 -0.4223 0.0123
vn 0.5818 -0.8130 0.0235
vn 0.5817 -0.8131 0.0236
vn 0.8480 -0.4023 -0.3450
vn 0.8479 -0.4025 -0.3450
vn 0.5369 -0.7585 -0.3693
vn -0.0000 -0.9226 -0.3856
vn -0.0000 -0.9225 -0.3861
vn 0.5818 -0.8130 0.0247
vn -0.0000 -0.9996 0.0281
vn 0.9064 -0.4223 0.0119
vn 0.9064 -0.4222 0.0123
vn -0.0002 0.0210 0.9998
vn -0.0000 0.0208 0.9998
vn -0.0002 0.0209 0.9998
vn 0.0002 0.0210 0.9998
vn 0.0002 0.0209 0.9998
vn -0.5818 -0.8129 0.0247
vn -0.5819 -0.8129 0.0247
vn -0.0000 -0.9996 0.0300
vn -0.5818 -0.8130 0.0232
vn -0.5818 -0.8130 0.0230
vn -0.0000 -0.9996 0.0298
vn 0.5818 -0.8130 0.0232
vn -0.0000 -0.7816 -0.6237
vn -0.0000 -0.7816 -0.6238
vn -0.4584 -0.6532 -0.6027
vn -0.4581 -0.6533 -0.6027
vn -0.7406 -0.3569 -0.5694
vn -0.9064 -0.4221 0.0127
vn -0.9065 -0.4221 0.0127
vn -1.0000 0.0001 0.0001
vn -1.0000 -0.0001 0.0001
vn 0.0010 0.0212 0.9998
vn 0.0005 0.0209 0.9998
vn 0.0002 0.0207 0.9998
vn -0.8281 -0.0115 -0.5604
vn -0.8281 -0.0116 -0.5604
vn -0.7376 0.3315 -0.5882
vn -0.7377 0.3316 -0.5881
vn -0.9065 0.4221 -0.0121
vn -0.9064 0.4221 -0.0122
vn -0.4554 0.6233 -0.6357
vn -0.4551 0.6234 -0.6358
vn -0.5818 0.8130 -0.0232
vn -0.5817 0.8130 -0.0233
vn -0.0000 0.7494 -0.6621
vn -0.0000 0.9996 -0.0285
vn 0.5818 0.8130 -0.0233
vn 0.5817 0.8130 -0.0232
vn 0.4555 0.6238 -0.6351
vn 0.4557 0.6237 -0.6351
vn 0.7384 0.3319 -0.5871
vn 0.7386 0.3319 -0.5868
vn 0.9064 0.4222 -0.0122
vn 0.9064 0.4223 -0.0121
vn -0.0001 0.0207 0.9998
vn -0.0001 0.0206 0.9998
vn -0.0003 0.0206 0.9998
vn -0.0003 0.0205 0.9998
vn -0.0000 0.0212 0.9998
vn -0.0000 0.0209 0.9998
vn -0.0001 0.9996 -0.0281
vn 0.5815 0.8132 -0.0227
vn 0.5818 0.8130 -0.0227
vn 0.9064 0.4223 -0.0128
vn -0.0000 0.8997 -0.4366
vn 0.5343 0.7387 -0.4110
vn 0.5344 0.7386 -0.4109
vn 0.8460 0.3868 -0.3669
vn 0.9397 -0.0072 -0.3420
vn 0.9397 -0.0071 -0.3420
vn 1.0000 -0.0001 -0.0001
vn 1.0000 0.0001 -0.0001
vn -0.0002 0.0207 0.9998
vn -0.0008 0.0211 0.9998
vn 0.9064 -0.4223 0.0125
vn 0.9064 -0.4222 0.0124
vn 1.0000 -0.0001 0.0001
vn 1.0000 0.0001 0.0001
vn 0.8284 -0.0116 -0.5600
vn 0.7413 -0.3574 -0.5681
vn 0.7412 -0.3571 -0.5684
vn 0.8281 -0.0117 -0.5604
vn 0.4584 -0.6537 -0.6020
vn 0.4584 -0.6539 -0.6018
vn -0.0000 -0.0207 -0.9998
vn -0.0000 -0.0208 -0.9998
vn -0.0006 -0.0206 -0.9998
vn 0.0005 -0.0206 -0.9998
vn 0.9064 0.4222 -0.0123
vn -0.5819 0.8130 -0.0229
vn -0.5343 0.7386 -0.4112
vn -0.5343 0.7385 -0.4111
vn 0.0003 0.0206 0.9998
vn 0.0001 0.0206 0.9998
vn 0.0001 0.0207 0.9998
vn 0.0006 0.0204 0.9998
vn -0.9064 0.4223 -0.0128
vn -1.0000 -0.0001 -0.0001
vn -1.0000 0.0001 -0.0001
vn -0.8459 0.3867 -0.3673
vn -0.8460 0.3866 -0.3673
vn -0.9397 -0.0071 -0.3419
vn -0.8478 -0.4024 -0.3454
vn -0.9064 -0.4223 0.0123
vn -0.9064 -0.4222 0.0122
vn -0.5369 -0.7584 -0.3696
vn -0.5370 -0.7583 -0.3696
vn 0.0005 0.0215 0.9998
vn -0.0010 0.0201 0.9998
vn 0.0004 0.0214 0.9998
vn 0.0007 0.0215 0.9998
vn 0.5813 -0.8117 0.0565
vn 0.2860 -0.3822 0.8787
vn -0.5431 0.7663 0.3434
vn -0.0011 0.0203 0.9998
vn 0.0012 0.0202 0.9998
vn 0.5817 -0.8131 0.0235
vn -0.0004 0.0212 0.9998
vn 0.8479 -0.4024 -0.3450
vn -0.0000 -0.9226 -0.3858
vn -0.0000 -0.9996 0.0283
vn 0.9063 -0.4224 0.0122
vn 0.9064 -0.4222 0.0119
vn -0.5818 -0.8129 0.0245
vn -0.5818 -0.8130 0.0231
vn -0.5818 -0.8130 0.0233
vn 0.5818 -0.8130 0.0233
vn 0.5818 -0.8130 0.0238
vn -0.0000 -0.7815 -0.6239
vn -0.4583 -0.6532 -0.6027
vn -0.7405 -0.3569 -0.5694
vn -0.9065 -0.4220 0.0125
vn -0.9064 -0.4223 0.0124
vn -0.8282 -0.0117 -0.5604
vn -0.8282 -0.0114 -0.5604
vn -0.7375 0.3315 -0.5883
vn -0.7375 0.3316 -0.5883
vn -0.4553 0.6232 -0.6358
vn -0.5817 0.8131 -0.0233
vn 0.5817 0.8131 -0.0232
vn 0.7386 0.3320 -0.5868
vn 0.9063 0.4224 -0.0124
vn 0.9064 0.4223 -0.0130
vn 0.9397 -0.0070 -0.3420
vn 0.9064 -0.4222 0.0127
vn 0.9064 -0.4223 0.0128
vn 0.8284 -0.0118 -0.5600
vn 0.7414 -0.3573 -0.5680
vn 0.8284 -0.0115 -0.5600
vn 0.4586 -0.6538 -0.6018
vn 0.0004 -0.0206 -0.9998
vn -0.9064 0.4223 -0.0129
vn -0.9396 -0.0070 -0.3423
vn -0.9396 -0.0070 -0.3422
vn -0.9064 -0.4222 0.0119
vn -0.9065 0.4221 -0.0122
vn -0.0012 0.0202 0.9998
vn -0.0010 0.0202 0.9998
vn -0.5427 -0.7511 0.3758
vn 0.8565 0.4057 0.3190
vn -0.9996 0.0005 0.0282
vn 0.5818 -0.8130 0.0245
vn -0.0000 -0.9996 0.0299
vn 0.5818 -0.8130 0.0231
vn -0.9065 -0.4220 0.0124
vn -0.8281 -0.0116 -0.5605
vn -0.8283 -0.0115 -0.5602
vn -0.7376 0.3316 -0.5882
vn 0.7385 0.3321 -0.5868
vn 0.9063 0.4223 -0.0126
vn 0.5344 0.7385 -0.4112
vn 0.9065 -0.4221 0.0124
vn 0.8284 -0.0119 -0.5601
vn 0.8281 -0.0116 -0.5604
vn 0.4585 -0.6539 -0.6018
vn 0.0006 -0.0206 -0.9998
vn -0.5819 0.8130 -0.0228
vn -0.9064 -0.4223 0.0119
vn -0.5368 -0.7584 -0.3696
vn -0.5366 -0.7585 -0.3698
vt 0.881651 0.900274
vt 0.952192 0.889111
vt 0.951424 0.950138
vt 0.887325 0.950670
vt 0.959290 0.950247
vt 0.892210 0.283237
vt 0.906863 0.283237
vt 0.906863 0.344790
vt 0.892210 0.344790
vt 0.873488 0.838751
vt 0.943045 0.827455
vt 0.892210 0.220891
vt 0.906863 0.220892
vt 0.867055 0.324472
vt 0.862850 0.324471
vt 0.862850 0.262434
vt 0.867055 0.262435
vt 0.867055 0.375169
vt 0.862850 0.375166
vt 0.136265 0.357969
vt 0.136265 0.307564
vt 0.142088 0.308295
vt 0.142088 0.357969
vt 0.142088 0.246141
vt 0.151371 0.823160
vt 0.133031 0.823160
vt 0.133031 0.817040
vt 0.151371 0.817040
vt 0.844505 0.391621
vt 0.844505 0.375166
vt 0.867055 0.391621
vt 0.826160 0.375166
vt 0.821955 0.391621
vt 0.821955 0.375160
vt 0.700437 0.116408
vt 0.722988 0.116330
vt 0.722988 0.118938
vt 0.700445 0.119017
vt 0.745539 0.116407
vt 0.745531 0.119017
vt 0.081253 0.357819
vt 0.080699 0.374264
vt 0.078816 0.376070
vt 0.052845 0.375861
vt 0.594638 0.550032
vt 0.614177 0.550032
vt 0.617184 0.551916
vt 0.594638 0.551916
vt 0.614177 0.525943
vt 0.617184 0.525943
vt 0.572092 0.551916
vt 0.575099 0.550032
vt 0.326870 0.505946
vt 0.326875 0.479520
vt 0.346412 0.479523
vt 0.346411 0.505947
vt 0.365949 0.479522
vt 0.365952 0.505946
vt 0.915739 0.968702
vt 0.889769 0.968920
vt 0.887885 0.967115
vt 0.572092 0.525943
vt 0.575099 0.525943
vt 0.952049 0.968396
vt 0.952355 0.977401
vt 0.916045 0.977707
vt 0.943838 0.418351
vt 0.943847 0.427361
vt 0.940837 0.424224
vt 0.940832 0.418412
vt 0.932283 0.427404
vt 0.932278 0.424246
vt 0.255325 0.383663
vt 0.255325 0.347351
vt 0.266889 0.347351
vt 0.266889 0.383663
vt 0.965150 0.969876
vt 0.965150 0.978880
vt 0.953578 0.978880
vt 0.953578 0.969861
vt 0.953577 0.951588
vt 0.968222 0.951588
vt 0.976129 0.969858
vt 0.976115 0.951585
vt 0.108470 0.082720
vt 0.097490 0.082732
vt 0.097488 0.079749
vt 0.108470 0.079738
vt 0.631932 0.748078
vt 0.628892 0.750948
vt 0.629205 0.741945
vt 0.632170 0.742270
vt 0.506499 0.450248
vt 0.495515 0.450249
vt 0.495518 0.423827
vt 0.515056 0.423816
vt 0.484531 0.450247
vt 0.475981 0.423813
vt 0.119453 0.079748
vt 0.119450 0.082731
vt 0.463287 0.289734
vt 0.463288 0.347165
vt 0.443746 0.347165
vt 0.443751 0.289732
vt 0.482830 0.347165
vt 0.482824 0.289732
vt 0.484529 0.456061
vt 0.475969 0.456050
vt 0.537105 0.631802
vt 0.569444 0.605407
vt 0.570681 0.637618
vt 0.537335 0.637612
vt 0.512016 0.605511
vt 0.513016 0.631916
vt 0.164398 0.373839
vt 0.167404 0.373899
vt 0.167401 0.379713
vt 0.164391 0.382849
vt 0.175960 0.379734
vt 0.175955 0.382891
vt 0.383156 0.228837
vt 0.383156 0.237397
vt 0.349809 0.237397
vt 0.349809 0.228837
vt 0.115268 0.890620
vt 0.118307 0.893492
vt 0.081998 0.893831
vt 0.081923 0.890674
vt 0.118000 0.884490
vt 0.115035 0.884812
vt 0.560173 0.760234
vt 0.548608 0.760234
vt 0.548608 0.723922
vt 0.560173 0.723922
vt 0.987093 0.978844
vt 0.987093 0.969843
vt 0.998657 0.969824
vt 0.998657 0.978844
vt 0.052543 0.384868
vt 0.016232 0.384573
vt 0.016535 0.375569
vt 0.017150 0.357311
vt 0.984003 0.951561
vt 0.998657 0.951561
vt 0.984003 0.890891
vt 0.976114 0.890898
vt 0.000273 0.401865
vt 0.000273 0.340476
vt 0.007926 0.340798
vt 0.007926 0.401865
vt 0.820590 0.762372
vt 0.820590 0.754506
vt 0.835244 0.754506
vt 0.835244 0.762372
vt 0.922643 0.344785
vt 0.922643 0.283233
vt 0.937296 0.283232
vt 0.937296 0.344785
vt 0.016362 0.296276
vt 0.009285 0.357419
vt 0.922643 0.220888
vt 0.937296 0.220886
vt 0.095070 0.245914
vt 0.086904 0.307424
vt 0.025516 0.234617
vt 0.826160 0.262412
vt 0.826160 0.324457
vt 0.821955 0.324454
vt 0.821955 0.262410
vt 0.966773 0.950268
vt 0.960952 0.950268
vt 0.960952 0.900593
vt 0.966773 0.899863
vt 0.960952 0.838439
vt 0.966773 0.837510
vt 0.018613 0.608878
vt 0.018613 0.670874
vt 0.000273 0.670872
vt 0.000273 0.608876
vt 0.018612 0.720075
vt 0.000273 0.720075
vt 0.036951 0.670872
vt 0.036951 0.720075
vt 0.036951 0.608877
vt 0.000273 0.554300
vt 0.018613 0.554302
vt 0.960952 0.783248
vt 0.966773 0.782612
vt 0.826160 0.146379
vt 0.826160 0.207185
vt 0.821955 0.207185
vt 0.821955 0.146379
vt 0.960952 0.722640
vt 0.966773 0.722275
vt 0.826160 0.108683
vt 0.821955 0.108683
vt 0.960951 0.685145
vt 0.966773 0.685145
vt 0.653454 0.687672
vt 0.653459 0.681959
vt 0.657663 0.681961
vt 0.657659 0.693667
vt 0.055303 0.112847
vt 0.068101 0.072638
vt 0.135167 0.097818
vt 0.122111 0.133185
vt 0.663171 0.610324
vt 0.657663 0.610323
vt 0.663171 0.687674
vt 0.937296 0.053261
vt 0.942834 0.008468
vt 0.942802 0.053263
vt 0.754506 0.479520
vt 0.831816 0.479520
vt 0.831816 0.524291
vt 0.754507 0.524291
vt 0.922643 0.053260
vt 0.922643 0.016312
vt 0.914754 0.016314
vt 0.914754 0.008465
vt 0.414481 0.228837
vt 0.386401 0.306184
vt 0.386402 0.228837
vt 0.906863 0.016315
vt 0.886674 0.008467
vt 0.458220 0.217640
vt 0.466110 0.217641
vt 0.466110 0.225335
vt 0.458220 0.225335
vt 0.474002 0.217641
vt 0.474001 0.225335
vt 0.968221 0.623976
vt 0.976111 0.623976
vt 0.976114 0.660926
vt 0.968222 0.660924
vt 0.984003 0.623976
vt 0.984003 0.660925
vt 0.976111 0.703125
vt 0.968222 0.703122
vt 0.984003 0.703122
vt 0.976115 0.768751
vt 0.968222 0.768750
vt 0.984003 0.768749
vt 0.976113 0.828556
vt 0.968222 0.828554
vt 0.984003 0.828553
vt 0.000273 0.277713
vt 0.007926 0.278429
vt 0.000273 0.217441
vt 0.007926 0.218629
vt 0.000273 0.151346
vt 0.007926 0.152962
vt 0.922643 0.161082
vt 0.922643 0.095457
vt 0.937296 0.095456
vt 0.937296 0.161080
vt 0.105428 0.191663
vt 0.037798 0.176091
vt 0.000273 0.108651
vt 0.007926 0.110599
vt 0.000273 0.072638
vt 0.007926 0.072638
vt 0.968222 0.890896
vt 0.998642 0.826037
vt 0.998642 0.888797
vt 0.990989 0.826752
vt 0.990989 0.766955
vt 0.990989 0.889117
vt 0.998642 0.950183
vt 0.990989 0.950183
vt 0.892210 0.161085
vt 0.906863 0.161086
vt 0.892210 0.095459
vt 0.906863 0.095460
vt 0.990989 0.701291
vt 0.998642 0.765767
vt 0.913279 0.705690
vt 0.930768 0.768934
vt 0.863139 0.784495
vt 0.846466 0.726012
vt 0.900495 0.665484
vt 0.833425 0.690640
vt 0.892210 0.053263
vt 0.906863 0.053263
vt 0.867055 0.207213
vt 0.862850 0.207213
vt 0.862850 0.146410
vt 0.867055 0.146409
vt 0.136265 0.245210
vt 0.136265 0.190312
vt 0.142088 0.190950
vt 0.136265 0.129976
vt 0.142088 0.130341
vt 0.036951 0.554300
vt 0.018613 0.494190
vt 0.036951 0.494187
vt 0.000273 0.494188
vt 0.018611 0.457128
vt 0.036951 0.457128
vt 0.000273 0.457128
vt 0.616768 0.687672
vt 0.635111 0.687672
vt 0.635111 0.693667
vt 0.612562 0.693667
vt 0.359424 0.507100
vt 0.359424 0.551897
vt 0.336867 0.551897
vt 0.336867 0.507100
vt 0.314309 0.551897
vt 0.314309 0.507100
vt 0.442560 0.306185
vt 0.414480 0.312178
vt 0.442560 0.228837
vt 0.437055 0.312178
vt 0.391906 0.312178
vt 0.788587 0.587930
vt 0.788587 0.632721
vt 0.780448 0.632721
vt 0.780448 0.587930
vt 0.361278 0.709162
vt 0.361278 0.664392
vt 0.438588 0.664392
vt 0.438588 0.709162
vt 0.607045 0.687677
vt 0.612552 0.681963
vt 0.607045 0.610325
vt 0.612552 0.610325
vt 0.886704 0.053264
vt 0.862850 0.108714
vt 0.867055 0.108714
vt 0.616760 0.681958
vt 0.136264 0.092845
vt 0.142088 0.092845
vt 0.338340 0.665756
vt 0.346477 0.665756
vt 0.346477 0.710547
vt 0.338340 0.710547
vt 0.990989 0.658930
vt 0.998642 0.699677
vt 0.998642 0.656984
vt 0.990989 0.620972
vt 0.998642 0.620972
vt 0.114691 0.823160
vt 0.114691 0.817040
vt 0.577541 0.408426
vt 0.545200 0.382032
vt 0.602629 0.382134
vt 0.601631 0.408539
vt 0.577311 0.414236
vt 0.543965 0.414243
vt 0.515060 0.456053
vt 0.506502 0.456062
vt 0.925756 0.424453
vt 0.892409 0.424453
vt 0.892409 0.415893
vt 0.925756 0.415894
vt 0.665202 0.751300
vt 0.665278 0.748142
vt 0.627707 0.124196
vt 0.613053 0.124196
vt 0.613053 0.116330
vt 0.627707 0.116330
vt 0.883199 0.670800
vt 0.848171 0.670800
vt 0.848171 0.665503
vt 0.883199 0.665507
vt 0.848171 0.660208
vt 0.883199 0.660214
vt 0.619808 0.391732
vt 0.619061 0.391916
vt 0.619400 0.386666
vt 0.620169 0.386757
vt 0.247934 0.514529
vt 0.250062 0.519355
vt 0.249302 0.519451
vt 0.247238 0.514855
vt 0.620191 0.381590
vt 0.620925 0.381743
vt 0.848171 0.612611
vt 0.848171 0.607319
vt 0.883200 0.607319
vt 0.883200 0.612614
vt 0.848171 0.617904
vt 0.883200 0.617906
vt 0.621448 0.376571
vt 0.622079 0.376948
vt 0.848171 0.623195
vt 0.883200 0.623196
vt 0.233538 0.449826
vt 0.233206 0.449135
vt 0.238413 0.448385
vt 0.238486 0.449154
vt 0.883201 0.628484
vt 0.848171 0.628478
vt 0.243547 0.448116
vt 0.243567 0.448872
vt 0.248553 0.449031
vt 0.248808 0.448305
vt 0.848171 0.633763
vt 0.883202 0.633772
vt 0.243679 0.454772
vt 0.238969 0.455008
vt 0.248431 0.454999
vt 0.745169 0.418566
vt 0.749794 0.420568
vt 0.747192 0.425897
vt 0.742710 0.424159
vt 0.745942 0.428644
vt 0.741779 0.427383
vt 0.247980 0.458342
vt 0.243672 0.457791
vt 0.239324 0.458015
vt 0.243462 0.461420
vt 0.239892 0.461585
vt 0.246956 0.462205
vt 0.242991 0.465092
vt 0.240635 0.465167
vt 0.245220 0.465863
vt 0.744635 0.432037
vt 0.741125 0.431312
vt 0.743541 0.435570
vt 0.741192 0.435352
vt 0.749814 0.430653
vt 0.747814 0.433662
vt 0.745651 0.436612
vt 0.742483 0.440218
vt 0.747151 0.438373
vt 0.750448 0.436106
vt 0.753277 0.433279
vt 0.234441 0.511621
vt 0.237176 0.515024
vt 0.234135 0.517075
vt 0.231653 0.514484
vt 0.231259 0.519350
vt 0.229456 0.517837
vt 0.239187 0.518876
vt 0.235824 0.520232
vt 0.232399 0.521410
vt 0.227744 0.522574
vt 0.232635 0.523713
vt 0.236611 0.523749
vt 0.629031 0.387800
vt 0.632651 0.387963
vt 0.633072 0.391544
vt 0.629081 0.392129
vt 0.240570 0.522979
vt 0.636271 0.387944
vt 0.636812 0.390194
vt 0.629642 0.383499
vt 0.633194 0.384420
vt 0.636663 0.385620
vt 0.631079 0.379374
vt 0.634674 0.381151
vt 0.637863 0.383594
vt 0.236483 0.462715
vt 0.235109 0.458969
vt 0.238539 0.466147
vt 0.242025 0.469758
vt 0.641047 0.387499
vt 0.626721 0.382825
vt 0.627900 0.378261
vt 0.234284 0.455737
vt 0.626022 0.387485
vt 0.625744 0.392201
vt 0.243748 0.521980
vt 0.241928 0.517577
vt 0.239704 0.513416
vt 0.244766 0.510425
vt 0.237038 0.509518
vt 0.242058 0.506306
vt 0.754283 0.422921
vt 0.758488 0.425609
vt 0.755329 0.430649
vt 0.751385 0.428069
vt 0.242524 0.505735
vt 0.245406 0.510034
vt 0.754668 0.422255
vt 0.759080 0.425121
vt 0.883199 0.649634
vt 0.848171 0.649625
vt 0.848171 0.644337
vt 0.883200 0.644347
vt 0.848171 0.639049
vt 0.883201 0.639060
vt 0.750105 0.419885
vt 0.745258 0.417805
vt 0.025319 0.824430
vt 0.025329 0.821955
vt 0.030338 0.821955
vt 0.030320 0.824436
vt 0.035306 0.821955
vt 0.035299 0.824372
vt 0.035297 0.825298
vt 0.030252 0.825361
vt 0.025248 0.825354
vt 0.471765 0.464441
vt 0.467089 0.463201
vt 0.467089 0.462315
vt 0.472207 0.463675
vt 0.462415 0.464443
vt 0.461971 0.463677
vt 0.040271 0.824469
vt 0.040331 0.825383
vt 0.042745 0.098830
vt 0.042745 0.104069
vt 0.041402 0.104066
vt 0.041419 0.098828
vt 0.041406 0.093587
vt 0.042745 0.093608
vt 0.040689 0.098826
vt 0.040689 0.104094
vt 0.041413 0.109311
vt 0.040689 0.109343
vt 0.042745 0.109310
vt 0.042745 0.114533
vt 0.041408 0.114559
vt 0.458228 0.467422
vt 0.458995 0.467864
vt 0.457738 0.472535
vt 0.456854 0.472536
vt 0.040689 0.114585
vt 0.041411 0.119793
vt 0.040689 0.119813
vt 0.042745 0.119761
vt 0.041407 0.125022
vt 0.040689 0.125024
vt 0.042745 0.124982
vt 0.041416 0.130238
vt 0.040689 0.130230
vt 0.042745 0.130204
vt 0.042745 0.135427
vt 0.041420 0.135427
vt 0.040689 0.135427
vt 0.040689 0.072638
vt 0.041426 0.072638
vt 0.041414 0.077865
vt 0.040689 0.077894
vt 0.042745 0.072638
vt 0.042745 0.077886
vt 0.472199 0.481396
vt 0.471754 0.480632
vt 0.475162 0.477199
vt 0.475928 0.477641
vt 0.467089 0.481902
vt 0.467089 0.482787
vt 0.005304 0.824416
vt 0.010331 0.824426
vt 0.010255 0.825357
vt 0.005296 0.825357
vt 0.015319 0.824407
vt 0.015305 0.825321
vt 0.005279 0.821955
vt 0.010286 0.821955
vt 0.015295 0.821955
vt 0.020309 0.821955
vt 0.020303 0.824472
vt 0.020289 0.825402
vt 0.476431 0.472532
vt 0.475187 0.467859
vt 0.475953 0.467417
vt 0.477315 0.472534
vt 0.041411 0.088346
vt 0.042745 0.088369
vt 0.041407 0.083105
vt 0.042745 0.083131
vt 0.040689 0.088322
vt 0.040689 0.083106
vt 0.040689 0.093562
vt 0.366686 0.369733
vt 0.370274 0.366143
vt 0.375177 0.364828
vt 0.380079 0.366140
vt 0.383669 0.369728
vt 0.365374 0.374637
vt 0.366689 0.379537
vt 0.383673 0.379535
vt 0.370278 0.383126
vt 0.384984 0.374631
vt 0.848171 0.654916
vt 0.883199 0.654923
vt 0.000273 0.825357
vt 0.000273 0.824476
vt 0.000273 0.821955
vt 0.459012 0.477201
vt 0.462425 0.480631
vt 0.461979 0.481396
vt 0.458244 0.477644
vt 0.055178 0.825352
vt 0.055191 0.824414
vt 0.060152 0.824431
vt 0.060152 0.825352
vt 0.050252 0.824459
vt 0.050193 0.825374
vt 0.055245 0.821955
vt 0.060152 0.821955
vt 0.050252 0.821955
vt 0.045263 0.821955
vt 0.045265 0.824403
vt 0.045266 0.825337
vt 0.040281 0.821955
vt 0.375182 0.384439
vt 0.380085 0.383125
s 1
usemtl P3D:_bc_czscorpion_co.paa_::_bc_czscorpion.rvmat
f 8/1/1 1/2/1 2/3/1 10/4/1
f 1/2/1 3/5/1 2/3/1
f 1/6/2 5/7/2 6/8/3 3/9/3
f 7/10/1 4/11/1 1/2/1 8/1/1
f 4/12/4 122/13/4 5/7/2 1/6/2
f 8/14/5 11/15/5 9/16/6 7/17/7
f 10/18/8 14/19/9 11/15/5 8/14/5
f 13/20/1 12/21/1 11/22/1 14/23/1
f 12/21/1 9/24/1 11/22/1
f 14/25/10 17/26/10 15/27/10 13/28/10
f 18/29/11 17/30/11 14/19/9 16/31/11
f 14/19/9 10/18/8 16/31/11
f 18/29/11 19/32/9 17/30/11
f 19/32/9 18/29/11 21/33/11 22/34/8
f 21/35/12 18/36/12 20/37/12 23/38/12
f 20/37/12 18/36/12 16/39/12 29/40/12
f 22/41/13 21/42/13 23/43/13 25/44/13
f 26/45/14 24/46/15 23/47/16 20/48/14
f 24/46/15 52/49/17 25/50/18 23/47/16
f 29/51/19 27/52/20 26/45/14 20/48/14
f 27/53/21 48/54/21 28/55/21 26/56/21
f 28/55/21 49/57/21 24/58/21 26/56/21
f 30/59/1 29/60/1 16/61/1 10/4/1
f 30/62/22 32/63/23 27/52/20 29/51/19
f 31/64/1 37/65/1 34/66/1 30/59/1
f 31/64/1 30/59/1 10/4/1 2/3/1
f 30/67/24 34/68/25 33/69/26 32/70/27
f 35/71/28 151/72/28 33/69/26 34/68/25
f 34/73/29 37/74/29 36/75/29 35/76/29
f 38/77/30 36/78/31 37/79/31 31/80/31
f 2/81/31 39/82/32 38/77/30 31/80/31
f 40/83/30 38/77/30 39/82/32 63/84/33
f 43/85/34 42/86/34 38/87/34 40/88/34
f 41/89/13 36/90/13 38/91/13 42/92/13
f 42/93/35 43/94/36 46/95/36 47/96/37
f 44/97/38 50/98/39 46/95/36 43/94/36
f 43/85/34 40/88/34 45/99/40 44/100/40
f 46/101/41 28/102/41 48/103/42 47/104/42
f 49/105/43 28/102/41 46/101/41 50/106/43
f 44/97/38 57/107/44 51/108/45 50/98/39
f 52/109/1 50/110/1 51/111/1 53/112/1
f 49/113/1 50/110/1 52/109/1 24/114/1
f 25/115/46 52/116/47 53/117/48 54/118/49
f 53/117/48 56/119/28 55/120/28 54/118/49
f 51/121/50 57/122/50 56/123/50 53/124/50
f 57/125/1 58/126/1 55/127/1 56/128/1
f 45/129/1 58/126/1 57/125/1 44/130/1
f 54/131/51 55/132/51 58/133/51 59/134/51
f 58/135/52 45/136/30 60/137/52 59/138/52
f 54/139/13 59/140/13 60/141/13 25/44/13
f 60/141/13 61/142/13 22/41/13 25/44/13
f 60/137/52 45/136/30 62/143/32 61/144/52
f 62/143/32 45/136/30 40/83/30 63/84/33
f 64/145/53 62/143/32 63/84/33 115/146/53
f 62/147/1 64/148/1 66/149/1 65/150/1
f 67/151/54 61/152/55 62/153/56 65/154/57
f 65/155/3 66/156/2 68/157/2 67/158/3
f 68/159/13 61/142/13 67/160/13
f 66/156/2 116/161/4 69/162/4 68/157/2
f 70/163/13 71/164/13 68/159/13 69/165/13
f 68/159/13 71/164/13 22/41/13 61/142/13
f 72/166/6 73/167/5 71/168/5 70/169/6
f 73/167/5 19/32/9 22/34/8 71/168/5
f 74/170/13 19/171/13 73/172/13 75/173/13
f 75/173/13 73/172/13 72/174/13 77/175/13
f 76/176/58 78/177/59 75/178/59 77/179/58
f 15/180/60 74/181/60 75/178/59 78/177/59
f 15/180/60 78/177/59 12/182/59 13/183/60
f 12/182/59 78/177/59 76/176/58 133/184/58
f 76/176/58 77/179/58 79/185/61 136/186/61
f 77/175/13 72/174/13 80/187/13 79/188/13
f 82/189/62 80/190/61 81/191/61 83/192/62
f 80/190/61 72/166/6 70/169/6 81/191/61
f 79/188/13 80/187/13 82/193/13 84/194/13
f 85/195/63 82/189/62 83/192/62 87/196/63
f 84/194/13 82/193/13 85/197/13 86/198/13
f 86/199/64 85/200/65 87/201/66 90/202/67
f 88/203/13 89/204/13 87/205/13 83/206/13
f 92/207/68 87/201/66 89/208/69
f 91/209/70 90/202/67 87/201/66 92/207/68
f 89/210/71 93/211/72 92/212/73
f 93/213/74 96/214/74 91/215/74 92/216/74
f 89/210/71 120/217/75 94/218/76 93/211/72
f 93/211/72 94/218/76 97/219/77 95/220/77
f 95/221/78 96/222/79 93/223/78
f 97/219/77 99/224/80 98/225/81 95/220/77
f 99/226/82 97/227/82 100/228/82 101/229/82
f 100/228/82 97/227/82 94/230/82 102/231/82
f 101/232/83 100/233/83 103/234/75 104/235/75
f 103/234/75 100/233/83 102/236/83 105/237/75
f 104/235/75 103/234/75 106/238/84 107/239/85
f 106/238/84 103/234/75 105/237/75 108/240/85
f 107/239/85 106/238/84 109/241/86 112/242/86
f 109/241/86 106/238/84 108/240/85 113/243/86
f 109/241/86 111/244/4 110/245/4 112/242/86
f 109/241/86 113/243/86 114/246/4 111/244/4
f 115/146/53 111/244/4 114/246/4 64/145/53
f 64/148/1 114/247/1 116/248/1 66/149/1
f 114/247/1 113/249/1 117/250/1 116/248/1
f 113/249/1 108/251/1 118/252/1 117/250/1
f 117/253/87 118/254/84 88/255/84 119/256/86
f 116/161/4 117/253/87 119/256/86 69/162/4
f 81/257/13 119/258/13 88/203/13 83/206/13
f 70/163/13 69/165/13 119/258/13 81/257/13
f 108/251/1 105/259/1 120/260/1 118/252/1
f 88/255/84 118/254/84 120/217/75 89/210/71
f 105/259/1 102/261/1 94/262/1 120/260/1
f 110/245/4 111/244/4 115/146/53 121/263/53
f 121/263/53 115/146/53 63/84/33 39/82/32
f 110/264/13 121/265/13 122/266/13 124/267/13
f 122/266/13 121/265/13 5/268/13
f 5/268/13 121/265/13 39/269/13 6/270/13
f 123/271/86 124/272/87 122/13/4 4/12/4
f 126/273/84 125/274/84 124/272/87 123/271/86
f 124/267/13 125/275/13 112/276/13 110/264/13
f 126/277/1 123/278/1 129/279/1 128/280/1
f 127/281/1 126/277/1 128/280/1 146/282/1
f 127/283/71 149/284/75 125/274/84 126/273/84
f 129/285/61 131/286/61 130/287/62 128/288/62
f 123/278/1 4/11/1 7/10/1 129/279/1
f 7/17/7 9/16/6 131/286/61 129/285/61
f 133/289/1 132/290/1 131/291/1
f 132/290/1 134/292/1 130/293/1 131/291/1
f 133/289/1 131/291/1 9/24/1 12/21/1
f 132/294/61 133/184/58 76/176/58 136/186/61
f 132/294/61 136/186/61 135/295/88 134/296/88
f 135/295/88 136/186/61 79/185/61 84/297/88
f 134/296/88 135/295/88 137/298/89 138/299/89
f 137/298/89 135/295/88 84/297/88 86/300/89
f 138/301/90 137/302/91 139/303/91 140/304/92
f 86/199/64 90/202/67 139/303/91 137/302/91
f 142/305/93 140/306/93 139/307/93 143/308/93
f 139/307/93 90/309/93 141/310/93 143/308/93
f 144/311/94 143/312/95 95/221/78 98/313/96
f 144/311/94 142/314/97 143/312/95
f 96/222/79 95/221/78 143/312/95 141/315/98
f 144/316/99 145/317/99 140/318/99 142/319/99
f 145/320/100 144/321/100 98/322/100 147/323/100
f 140/304/92 145/324/101 146/325/102
f 146/325/102 145/324/101 147/326/103 127/327/66
f 127/283/71 147/328/73 98/225/81
f 128/288/62 130/287/62 148/329/63 146/330/63
f 138/301/90 140/304/92 146/325/102 148/331/65
f 134/292/1 138/332/1 148/333/1 130/293/1
f 96/334/104 141/335/104 90/336/104 91/337/104
f 127/283/71 98/225/81 99/224/80 149/284/75
f 125/275/13 149/338/13 107/339/13 112/276/13
f 149/338/13 104/340/13 107/339/13
f 99/341/13 101/342/13 104/340/13 149/338/13
f 15/27/10 17/26/10 19/343/10 74/344/10
f 32/345/13 47/346/13 48/347/13 27/348/13
f 32/345/13 33/349/13 150/350/13 47/346/13
f 150/351/105 41/352/106 42/93/35 47/96/37
f 151/353/107 41/354/107 150/355/107 33/356/107
f 35/357/13 36/90/13 41/89/13 151/358/13
f 3/359/54 6/360/57 39/361/108 2/362/109
f 155/363/110 158/364/111 152/365/112 153/366/112
f 152/365/112 157/367/113 154/368/114 153/366/112
f 156/369/115 152/370/115 158/371/116 159/372/117
f 157/373/118 152/374/115 156/375/115 220/376/118
f 159/372/117 158/371/116 160/377/119 162/378/120
f 160/379/121 158/380/111 155/381/110 161/382/122
f 163/383/13 160/379/121 161/382/122 164/384/123
f 162/378/120 160/377/119 163/385/124 165/386/124
f 166/387/125 163/383/13 164/384/123 168/388/126
f 165/389/124 163/390/124 166/391/127 169/392/128
f 167/393/129 170/394/130 166/387/125 168/388/126
f 170/395/131 173/396/132 169/392/128 166/391/127
f 171/397/133 173/396/132 170/395/131 172/398/115
f 172/399/134 170/394/130 167/393/129 234/400/134
f 173/396/135 175/401/136 174/402/137 169/392/138
f 173/396/135 171/397/139 176/403/140 175/401/136
f 171/404/139 233/405/141 177/406/142 176/407/140
f 176/407/140 177/406/142 179/408/143 178/409/144
f 176/403/140 178/410/144 180/411/145 175/401/136
f 174/402/137 175/401/136 180/411/145 181/412/146
f 180/411/145 183/413/147 182/414/148 181/412/146
f 178/410/144 186/415/149 183/413/147 180/411/145
f 182/414/148 183/413/147 184/416/150 214/417/151
f 183/413/147 186/415/149 185/418/152 184/416/150
f 178/409/144 179/408/143 187/419/153 186/420/149
f 187/419/153 189/421/154 185/422/152 186/420/149
f 179/408/143 194/423/155 188/424/156 187/419/153
f 188/424/156 191/425/157 189/421/154 187/419/153
f 185/422/152 189/421/154 190/426/158
f 189/421/154 191/425/157 190/426/158
f 191/425/157 192/427/159 190/426/158
f 193/428/160 192/427/159 191/425/157 188/424/156
f 194/423/155 195/429/161 193/428/160 188/424/156
f 195/430/161 197/431/162 196/432/163 193/433/160
f 196/432/163 199/434/164 192/435/159 193/433/160
f 197/431/162 206/436/165 198/437/166 196/432/163
f 198/437/166 200/438/167 199/434/164 196/432/163
f 192/435/159 199/434/164 190/439/158
f 199/434/164 200/438/167 190/439/158
f 200/438/167 201/440/168 190/439/158
f 202/441/169 201/440/168 200/438/167 198/437/166
f 203/442/170 207/443/171 202/444/169 204/445/172
f 206/436/165 204/446/172 202/441/169 198/437/166
f 202/444/169 207/443/171 205/447/173 201/448/168
f 208/449/174 210/450/175 207/443/171 203/442/170
f 207/443/171 210/450/175 209/451/176 205/447/173
f 211/452/177 213/453/178 210/450/175 208/449/174
f 210/450/175 213/453/178 212/454/179 209/451/176
f 181/412/146 182/414/148 213/455/178 211/456/177
f 213/455/178 182/414/148 214/417/151 212/457/179
f 212/457/179 214/417/151 190/458/158
f 214/417/151 184/416/150 190/458/158
f 209/451/176 212/454/179 190/459/158
f 216/460/180 215/461/181 211/452/177 208/449/174
f 215/462/181 174/402/137 181/412/146 211/456/177
f 162/378/182 216/460/180 217/463/183 159/372/184
f 216/460/180 208/449/174 203/442/170 217/463/183
f 162/378/182 165/386/185 215/461/181 216/460/180
f 159/372/184 217/463/183 218/464/186 156/369/187
f 217/463/183 203/442/170 204/445/172 218/464/186
f 156/375/187 218/465/186 219/466/188 220/376/189
f 219/466/188 218/465/186 204/446/172 206/436/165
f 220/376/189 219/466/188 221/467/190 222/468/191
f 221/467/190 219/466/188 206/436/165 197/431/162
f 222/468/191 221/467/190 223/469/192 226/470/193
f 221/467/190 197/431/162 195/430/161 223/469/192
f 224/471/194 226/472/193 223/473/192 225/474/195
f 225/474/195 223/473/192 195/429/161 194/423/155
f 222/468/196 226/470/124 227/475/124 290/476/197
f 226/472/124 224/471/198 228/477/199 227/478/124
f 229/479/1 227/480/1 228/481/200 230/482/201
f 228/481/200 232/483/202 231/484/203 230/482/201
f 224/471/198 233/405/116 232/485/116 228/477/199
f 171/404/133 172/486/115 232/485/116 233/405/116
f 231/484/203 232/483/202 172/399/134 234/400/134
f 224/471/194 225/474/195 177/406/142 233/405/141
f 235/487/204 230/488/205 231/489/206 236/490/206
f 236/490/206 231/489/206 234/491/207 237/492/208
f 236/490/209 237/492/210 239/493/210 238/494/209
f 235/487/211 236/490/209 238/494/209 281/495/212
f 238/496/213 239/497/214 242/498/214 244/499/215
f 242/498/214 239/497/214 240/500/216 243/501/217
f 239/493/210 237/492/210 241/502/218 240/503/219
f 242/504/220 243/505/221 247/506/222 246/507/223
f 245/508/224 244/509/224 242/504/220 246/507/223
f 248/510/225 246/507/226 247/506/227 249/511/228
f 249/511/228 247/506/227 250/512/229 256/513/229
f 247/506/222 243/505/221 251/514/230 250/512/231
f 251/514/230 252/515/232 255/516/233 250/512/231
f 251/517/234 254/518/235 253/519/236 252/520/236
f 243/501/217 240/500/216 254/518/235 251/517/234
f 256/513/229 250/512/229 255/516/237 257/521/238
f 257/521/238 255/516/237 258/522/239 259/523/240
f 252/515/232 260/524/241 258/522/242 255/516/233
f 259/523/240 258/522/239 261/525/243 262/526/244
f 260/524/241 264/527/245 261/525/246 258/522/242
f 261/525/243 265/528/247 263/529/247 262/526/244
f 264/527/245 266/530/248 265/528/248 261/525/246
f 266/530/248 271/531/249 267/532/250 265/528/248
f 263/529/247 265/528/247 267/532/251 268/533/252
f 268/534/252 267/535/251 269/536/253 289/537/254
f 267/535/250 271/538/249 270/539/255 269/536/256
f 271/540/257 274/541/258 272/542/259 270/543/260
f 273/544/261 274/541/258 271/540/257 266/545/262
f 275/546/263 276/547/264 274/548/265 273/549/263
f 276/547/264 277/550/266 272/551/266 274/548/265
f 153/552/267 154/553/268 276/547/269 275/546/267
f 154/553/268 278/554/270 277/550/270 276/547/269
f 278/554/270 229/555/271 279/556/272 277/550/270
f 272/551/266 277/550/266 279/556/273 280/557/274
f 279/556/273 235/487/211 281/495/212 280/557/274
f 279/556/272 229/555/271 230/488/205 235/487/204
f 280/558/275 281/559/276 282/560/276 283/561/275
f 281/559/276 238/496/213 244/499/215 282/560/276
f 285/562/277 282/563/278 244/509/224 245/508/224
f 284/564/279 283/565/280 282/563/278 285/562/277
f 284/564/281 285/562/282 286/566/283 288/567/284
f 285/562/282 245/508/285 287/568/286 286/566/283
f 286/569/287 287/570/288 248/571/288
f 245/508/285 246/507/226 248/510/225 287/568/286
f 286/569/287 248/571/288 249/572/288 256/573/287
f 288/574/289 286/569/287 256/573/287 289/575/287
f 289/537/254 269/536/253 284/564/281 288/567/284
f 289/575/287 259/576/287 268/577/288
f 289/575/287 256/573/287 257/578/290 259/576/287
f 269/536/256 270/539/255 283/565/280 284/564/279
f 270/543/260 272/542/259 280/558/275 283/561/275
f 157/367/113 290/579/291 278/580/255 154/368/114
f 278/580/255 290/579/291 227/480/1 229/479/1
f 220/376/118 222/468/196 290/476/197 157/373/118
f 292/581/292 291/582/245 275/546/263 273/549/263
f 291/582/293 155/583/294 153/552/267 275/546/267
f 293/584/295 292/585/296 264/586/297 260/587/298
f 293/588/299 295/589/299 291/590/245 292/591/292
f 264/586/297 292/585/296 273/544/261 266/545/262
f 294/592/300 295/589/299 293/588/299 253/593/301
f 253/519/236 293/584/295 260/587/298 252/520/236
f 295/589/302 161/594/303 155/595/294 291/590/293
f 294/592/304 164/596/304 161/594/303 295/589/302
f 168/597/305 164/596/304 294/592/304 296/598/305
f 296/598/306 294/592/300 253/593/301 254/599/307
f 241/502/308 167/600/309 168/597/305 296/598/305
f 240/503/219 241/502/218 296/598/306 254/599/307
f 263/601/288 268/577/288 259/576/287 262/602/288
f 234/491/207 167/600/309 241/502/308 237/492/208
f 225/474/195 194/423/155 179/408/143 177/406/142
f 169/392/138 174/402/137 215/462/181 165/389/185
f 205/447/173 209/451/176 190/459/158
f 201/448/168 205/447/173 190/459/158
f 184/416/150 185/418/152 190/458/158
f 300/363/110 303/364/111 297/365/112 298/366/112
f 297/365/112 302/367/113 299/368/114 298/366/112
f 301/369/115 297/370/115 303/371/116 304/372/117
f 302/373/310 297/374/115 301/375/115 365/376/131
f 304/372/117 303/371/116 305/377/119 307/378/120
f 305/379/121 303/380/111 300/381/110 306/382/122
f 308/383/13 305/379/121 306/382/122 309/384/13
f 307/378/120 305/377/119 308/385/124 310/386/124
f 311/387/125 308/383/13 309/384/13 313/388/126
f 310/389/124 308/390/124 311/391/127 314/392/311
f 312/393/129 315/394/130 311/387/125 313/388/126
f 315/395/312 318/396/313 314/392/311 311/391/127
f 316/397/158 318/396/313 315/395/312 317/398/133
f 317/399/134 315/394/130 312/393/129 379/400/134
f 318/396/135 320/401/136 319/402/137 314/392/138
f 318/396/135 316/397/139 321/403/140 320/401/136
f 316/404/139 378/405/314 322/406/142 321/407/140
f 321/407/140 322/406/142 324/408/143 323/409/144
f 321/403/140 323/410/144 325/411/145 320/401/136
f 319/402/137 320/401/136 325/411/145 326/412/146
f 325/411/145 328/413/147 327/414/148 326/412/146
f 323/410/144 331/415/149 328/413/147 325/411/145
f 327/414/148 328/413/147 329/416/150 359/417/151
f 328/413/147 331/415/149 330/418/152 329/416/150
f 323/409/144 324/408/143 332/419/153 331/420/149
f 332/419/153 334/421/315 330/422/152 331/420/149
f 324/408/143 339/423/155 333/424/156 332/419/153
f 333/424/156 336/425/157 334/421/315 332/419/153
f 330/422/152 334/421/315 335/426/158
f 334/421/315 336/425/157 335/426/158
f 336/425/157 337/427/159 335/426/158
f 338/428/160 337/427/159 336/425/157 333/424/156
f 339/423/155 340/429/161 338/428/160 333/424/156
f 340/430/161 342/431/162 341/432/163 338/433/160
f 341/432/163 344/434/164 337/435/159 338/433/160
f 342/431/162 351/436/165 343/437/166 341/432/163
f 343/437/166 345/438/167 344/434/164 341/432/163
f 337/435/159 344/434/164 335/439/158
f 344/434/164 345/438/167 335/439/158
f 345/438/167 346/440/168 335/439/158
f 347/441/169 346/440/168 345/438/167 343/437/166
f 348/442/316 352/443/171 347/444/169 349/445/172
f 351/436/165 349/446/172 347/441/169 343/437/166
f 347/444/169 352/443/171 350/447/173 346/448/168
f 353/449/174 355/450/175 352/443/171 348/442/316
f 352/443/171 355/450/175 354/451/176 350/447/173
f 356/452/177 358/453/178 355/450/175 353/449/174
f 355/450/175 358/453/178 357/454/179 354/451/176
f 326/412/146 327/414/148 358/455/178 356/456/177
f 358/455/178 327/414/148 359/417/151 357/457/179
f 357/457/179 359/417/151 335/458/158
f 359/417/151 329/416/150 335/458/158
f 354/451/176 357/454/179 335/459/158
f 361/460/180 360/461/181 356/452/177 353/449/174
f 360/462/181 319/402/137 326/412/146 356/456/177
f 307/378/182 361/460/180 362/463/183 304/372/184
f 361/460/180 353/449/174 348/442/316 362/463/183
f 307/378/182 310/386/185 360/461/181 361/460/180
f 304/372/184 362/463/183 363/464/186 301/369/187
f 362/463/183 348/442/316 349/445/172 363/464/186
f 301/375/187 363/465/186 364/466/188 365/376/189
f 364/466/188 363/465/186 349/446/172 351/436/165
f 365/376/189 364/466/188 366/467/190 367/468/191
f 366/467/190 364/466/188 351/436/165 342/431/162
f 367/468/191 366/467/190 368/469/192 371/470/193
f 366/467/190 342/431/162 340/430/161 368/469/192
f 369/471/194 371/472/193 368/473/192 370/474/195
f 370/474/195 368/473/192 340/429/161 339/423/155
f 367/468/317 371/470/124 372/475/124 435/476/197
f 371/472/124 369/471/198 373/477/318 372/478/124
f 374/479/1 372/480/1 373/481/200 375/482/201
f 373/481/200 377/483/319 376/484/203 375/482/201
f 369/471/198 378/405/320 377/485/116 373/477/318
f 316/404/158 317/486/133 377/485/116 378/405/320
f 376/484/203 377/483/319 317/399/134 379/400/134
f 369/471/194 370/474/195 322/406/142 378/405/314
f 380/487/321 375/488/205 376/489/206 381/490/206
f 381/490/206 376/489/206 379/491/322 382/492/208
f 381/490/209 382/492/323 384/493/210 383/494/209
f 380/487/324 381/490/209 383/494/209 426/495/325
f 383/496/213 384/497/214 387/498/214 389/499/215
f 387/498/214 384/497/214 385/500/216 388/501/217
f 384/493/210 382/492/323 386/502/326 385/503/219
f 387/504/220 388/505/327 392/506/328 391/507/220
f 390/508/329 389/509/330 387/504/220 391/507/220
f 393/510/331 391/507/331 392/506/332 394/511/228
f 394/511/228 392/506/332 395/512/333 401/513/229
f 392/506/328 388/505/327 396/514/334 395/512/335
f 396/514/334 397/515/232 400/516/233 395/512/335
f 396/517/234 399/518/235 398/519/236 397/520/236
f 388/501/217 385/500/216 399/518/235 396/517/234
f 401/513/229 395/512/333 400/516/336 402/521/337
f 402/521/337 400/516/336 403/522/338 404/523/339
f 397/515/232 405/524/241 403/522/242 400/516/233
f 404/523/339 403/522/338 406/525/243 407/526/340
f 405/524/241 409/527/245 406/525/341 403/522/242
f 406/525/243 410/528/247 408/529/247 407/526/340
f 409/527/245 411/530/248 410/528/248 406/525/341
f 411/530/248 416/531/249 412/532/342 410/528/248
f 408/529/247 410/528/247 412/532/251 413/533/252
f 413/534/252 412/535/251 414/536/253 434/537/343
f 412/535/342 416/538/249 415/539/255 414/536/256
f 416/540/257 419/541/258 417/542/259 415/543/260
f 418/544/261 419/541/258 416/540/257 411/545/262
f 420/546/263 421/547/249 419/548/265 418/549/263
f 421/547/249 422/550/344 417/551/345 419/548/265
f 298/552/267 299/553/268 421/547/269 420/546/267
f 299/553/268 423/554/270 422/550/270 421/547/269
f 423/554/270 374/555/346 424/556/346 422/550/270
f 417/551/345 422/550/344 424/556/273 425/557/274
f 424/556/273 380/487/324 426/495/325 425/557/274
f 424/556/346 374/555/346 375/488/205 380/487/321
f 425/558/275 426/559/276 427/560/276 428/561/133
f 426/559/276 383/496/213 389/499/215 427/560/276
f 430/562/347 427/563/348 389/509/330 390/508/329
f 429/564/279 428/565/280 427/563/348 430/562/347
f 429/564/349 430/562/282 431/566/350 433/567/351
f 430/562/282 390/508/285 432/568/352 431/566/350
f 431/569/287 432/570/288 393/571/288
f 390/508/285 391/507/331 393/510/331 432/568/352
f 431/569/287 393/571/288 394/572/288 401/573/287
f 433/574/289 431/569/287 401/573/287 434/575/287
f 434/537/343 414/536/253 429/564/349 433/567/351
f 434/575/287 404/576/287 413/577/288
f 434/575/287 401/573/287 402/578/353 404/576/287
f 414/536/256 415/539/255 428/565/280 429/564/279
f 415/543/260 417/542/259 425/558/275 428/561/133
f 302/367/113 435/579/291 423/580/255 299/368/114
f 423/580/255 435/579/291 372/480/1 374/479/1
f 365/376/131 367/468/317 435/476/197 302/373/310
f 437/581/341 436/582/245 420/546/263 418/549/263
f 436/582/293 300/583/294 298/552/267 420/546/267
f 438/584/295 437/585/296 409/586/297 405/587/298
f 438/588/354 440/589/299 436/590/245 437/591/341
f 409/586/297 437/585/296 418/544/261 411/545/262
f 439/592/300 440/589/299 438/588/354 398/593/301
f 398/519/236 438/584/295 405/587/298 397/520/236
f 440/589/302 306/594/303 300/595/294 436/590/293
f 439/592/355 309/596/356 306/594/303 440/589/302
f 313/597/305 309/596/356 439/592/355 441/598/305
f 441/598/306 439/592/300 398/593/301 399/599/357
f 386/502/308 312/600/309 313/597/305 441/598/305
f 385/503/219 386/502/326 441/598/306 399/599/357
f 408/601/288 413/577/288 404/576/287 407/602/288
f 379/491/322 312/600/309 386/502/308 382/492/208
f 370/474/195 339/423/155 324/408/143 322/406/142
f 314/392/138 319/402/137 360/462/181 310/389/185
f 350/447/173 354/451/176 335/459/158
f 346/448/168 350/447/173 335/459/158
f 329/416/150 330/418/152 335/458/158
f 445/363/110 448/364/111 442/365/112 443/366/112
f 442/365/112 447/367/113 444/368/114 443/366/112
f 446/369/115 442/370/133 448/371/116 449/372/117
f 447/373/312 442/374/133 446/375/115 510/376/131
f 449/372/117 448/371/116 450/377/119 452/378/120
f 450/379/358 448/380/111 445/381/110 451/382/122
f 453/383/13 450/379/358 451/382/122 454/384/13
f 452/378/120 450/377/119 453/385/124 455/386/124
f 456/387/125 453/383/13 454/384/13 458/388/126
f 455/389/124 453/390/124 456/391/359 459/392/360
f 457/393/129 460/394/130 456/387/125 458/388/126
f 460/395/118 463/396/313 459/392/360 456/391/359
f 461/397/158 463/396/313 460/395/118 462/398/133
f 462/399/134 460/394/130 457/393/129 524/400/134
f 463/396/135 465/401/136 464/402/137 459/392/138
f 463/396/135 461/397/139 466/403/140 465/401/136
f 461/404/139 523/405/314 467/406/142 466/407/140
f 466/407/140 467/406/142 469/408/143 468/409/144
f 466/403/140 468/410/144 470/411/361 465/401/136
f 464/402/137 465/401/136 470/411/361 471/412/146
f 470/411/361 473/413/147 472/414/148 471/412/146
f 468/410/144 476/415/149 473/413/147 470/411/361
f 472/414/148 473/413/147 474/416/150 504/417/151
f 473/413/147 476/415/149 475/418/152 474/416/150
f 468/409/144 469/408/143 477/419/153 476/420/149
f 477/419/153 479/421/315 475/422/152 476/420/149
f 469/408/143 484/423/155 478/424/156 477/419/153
f 478/424/156 481/425/157 479/421/315 477/419/153
f 475/422/152 479/421/315 480/426/158
f 479/421/315 481/425/157 480/426/158
f 481/425/157 482/427/159 480/426/158
f 483/428/160 482/427/159 481/425/157 478/424/156
f 484/423/155 485/429/161 483/428/160 478/424/156
f 485/430/161 487/431/362 486/432/163 483/433/160
f 486/432/163 489/434/164 482/435/159 483/433/160
f 487/431/362 496/436/165 488/437/166 486/432/163
f 488/437/166 490/438/167 489/434/164 486/432/163
f 482/435/159 489/434/164 480/439/158
f 489/434/164 490/438/167 480/439/158
f 490/438/167 491/440/168 480/439/158
f 492/441/169 491/440/168 490/438/167 488/437/166
f 493/442/316 497/443/171 492/444/169 494/445/172
f 496/436/165 494/446/172 492/441/169 488/437/166
f 492/444/169 497/443/171 495/447/173 491/448/168
f 498/449/174 500/450/175 497/443/171 493/442/316
f 497/443/171 500/450/175 499/451/176 495/447/173
f 501/452/177 503/453/178 500/450/175 498/449/174
f 500/450/175 503/453/178 502/454/179 499/451/176
f 471/412/146 472/414/148 503/455/178 501/456/177
f 503/455/178 472/414/148 504/417/151 502/457/179
f 502/457/179 504/417/151 480/458/158
f 504/417/151 474/416/150 480/458/158
f 499/451/176 502/454/179 480/459/158
f 506/460/180 505/461/181 501/452/177 498/449/174
f 505/462/181 464/402/137 471/412/146 501/456/177
f 452/378/182 506/460/180 507/463/183 449/372/184
f 506/460/180 498/449/174 493/442/316 507/463/183
f 452/378/182 455/386/363 505/461/181 506/460/180
f 449/372/184 507/463/183 508/464/186 446/369/187
f 507/463/183 493/442/316 494/445/172 508/464/186
f 446/375/187 508/465/186 509/466/188 510/376/189
f 509/466/188 508/465/186 494/446/172 496/436/165
f 510/376/189 509/466/188 511/467/190 512/468/191
f 511/467/190 509/466/188 496/436/165 487/431/362
f 512/468/191 511/467/190 513/469/192 516/470/193
f 511/467/190 487/431/362 485/430/161 513/469/192
f 514/471/194 516/472/193 513/473/192 515/474/195
f 515/474/195 513/473/192 485/429/161 484/423/155
f 512/468/196 516/470/124 517/475/124 580/476/197
f 516/472/124 514/471/198 518/477/199 517/478/124
f 519/479/1 517/480/1 518/481/200 520/482/201
f 518/481/200 522/483/202 521/484/203 520/482/201
f 514/471/198 523/405/320 522/485/116 518/477/199
f 461/404/158 462/486/133 522/485/116 523/405/320
f 521/484/203 522/483/202 462/399/134 524/400/134
f 514/471/194 515/474/195 467/406/142 523/405/314
f 525/487/204 520/488/205 521/489/206 526/490/206
f 526/490/206 521/489/206 524/491/208 527/492/208
f 526/490/364 527/492/210 529/493/323 528/494/209
f 525/487/211 526/490/364 528/494/209 571/495/325
f 528/496/213 529/497/214 532/498/214 534/499/215
f 532/498/214 529/497/214 530/500/216 533/501/217
f 529/493/323 527/492/210 531/502/218 530/503/326
f 532/504/220 533/505/327 537/506/327 536/507/365
f 535/508/366 534/509/366 532/504/220 536/507/365
f 538/510/226 536/507/226 537/506/332 539/511/228
f 539/511/228 537/506/332 540/512/333 546/513/229
f 537/506/327 533/505/327 541/514/367 540/512/231
f 541/514/367 542/515/232 545/516/233 540/512/231
f 541/517/234 544/518/235 543/519/236 542/520/236
f 533/501/217 530/500/216 544/518/235 541/517/234
f 546/513/229 540/512/333 545/516/368 547/521/369
f 547/521/369 545/516/368 548/522/239 549/523/370
f 542/515/232 550/524/241 548/522/121 545/516/233
f 549/523/370 548/522/239 551/525/243 552/526/244
f 550/524/241 554/527/245 551/525/341 548/522/121
f 551/525/243 555/528/247 553/529/247 552/526/244
f 554/527/245 556/530/248 555/528/248 551/525/341
f 556/530/248 561/531/249 557/532/342 555/528/248
f 553/529/247 555/528/247 557/532/251 558/533/252
f 558/534/252 557/535/251 559/536/371 579/537/343
f 557/535/342 561/538/249 560/539/255 559/536/256
f 561/540/257 564/541/258 562/542/259 560/543/260
f 563/544/262 564/541/258 561/540/257 556/545/262
f 565/546/263 566/547/249 564/548/342 563/549/263
f 566/547/249 567/550/372 562/551/345 564/548/342
f 443/552/267 444/553/373 566/547/269 565/546/267
f 444/553/373 568/554/270 567/550/270 566/547/269
f 568/554/270 519/555/346 569/556/272 567/550/270
f 562/551/345 567/550/372 569/556/273 570/557/274
f 569/556/273 525/487/211 571/495/325 570/557/274
f 569/556/272 519/555/346 520/488/205 525/487/204
f 570/558/275 571/559/276 572/560/276 573/561/275
f 571/559/276 528/496/213 534/499/215 572/560/276
f 575/562/347 572/563/374 534/509/366 535/508/366
f 574/564/279 573/565/280 572/563/374 575/562/347
f 574/564/375 575/562/282 576/566/350 578/567/376
f 575/562/282 535/508/285 577/568/377 576/566/350
f 576/569/287 577/570/288 538/571/288
f 535/508/285 536/507/226 538/510/226 577/568/377
f 576/569/287 538/571/288 539/572/288 546/573/287
f 578/574/289 576/569/287 546/573/287 579/575/287
f 579/537/343 559/536/371 574/564/375 578/567/376
f 579/575/287 549/576/287 558/577/288
f 579/575/287 546/573/287 547/578/378 549/576/287
f 559/536/256 560/539/255 573/565/280 574/564/279
f 560/543/260 562/542/259 570/558/275 573/561/275
f 447/367/113 580/579/291 568/580/255 444/368/114
f 568/580/255 580/579/291 517/480/1 519/479/1
f 510/376/131 512/468/196 580/476/197 447/373/312
f 582/581/379 581/582/245 565/546/263 563/549/263
f 581/582/293 445/583/294 443/552/267 565/546/267
f 583/584/295 582/585/296 554/586/297 550/587/298
f 583/588/299 585/589/299 581/590/245 582/591/379
f 554/586/297 582/585/296 563/544/262 556/545/262
f 584/592/300 585/589/299 583/588/299 543/593/301
f 543/519/236 583/584/295 550/587/298 542/520/236
f 585/589/302 451/594/303 445/595/294 581/590/293
f 584/592/304 454/596/304 451/594/303 585/589/302
f 458/597/305 454/596/304 584/592/304 586/598/305
f 586/598/380 584/592/300 543/593/301 544/599/307
f 531/502/381 457/600/382 458/597/305 586/598/305
f 530/503/326 531/502/218 586/598/380 544/599/307
f 553/601/288 558/577/288 549/576/287 552/602/288
f 524/491/208 457/600/382 531/502/381 527/492/208
f 515/474/195 484/423/155 469/408/143 467/406/142
f 459/392/138 464/402/137 505/462/181 455/389/363
f 495/447/173 499/451/176 480/459/158
f 491/448/168 495/447/173 480/459/158
f 474/416/150 475/418/152 480/458/158
